<svg xmlns="http://www.w3.org/2000/svg" xmlns:xlink="http://www.w3.org/1999/xlink" width="300" zoomAndPan="magnify" viewBox="0 0 224.87999 37.5" height="50" preserveAspectRatio="xMidYMid meet" version="1.0"><defs><g/></defs><g fill="rgb(100%, 100%, 100%)" fill-opacity="1"><g transform="translate(9.421961, 28.273026)"><g><path d="M 4.910156 -18.339844 L 10.507812 -4.789062 C 10.785156 -4.011719 11.097656 -3.265625 11.378906 -2.519531 C 11.53125 -2.113281 11.65625 -1.710938 12.03125 -0.589844 L 12.683594 -0.589844 C 13.273438 -2.457031 13.492188 -3.109375 13.988281 -4.351562 L 19.644531 -18.152344 L 19.925781 -3.203125 L 19.925781 -3.078125 C 19.925781 -1.398438 19.523438 -1.089844 17.285156 -1.027344 L 17.285156 0.09375 C 19.273438 -0.0625 20.359375 -0.125 21.976562 -0.125 C 23.59375 -0.125 24.652344 -0.0625 26.640625 0.09375 L 26.640625 -1.027344 C 24.371094 -1.089844 24.027344 -1.398438 24.027344 -3.203125 L 23.75 -17.5 L 23.75 -17.65625 C 23.75 -19.304688 24.121094 -19.582031 26.390625 -19.675781 L 26.390625 -20.828125 C 25.054688 -20.734375 24.339844 -20.703125 23.066406 -20.703125 C 21.730469 -20.703125 20.921875 -20.734375 19.492188 -20.828125 L 13.832031 -7.179688 L 8.207031 -20.828125 C 6.746094 -20.734375 5.90625 -20.703125 4.539062 -20.703125 C 3.234375 -20.703125 2.488281 -20.734375 1.089844 -20.828125 L 1.089844 -19.644531 C 3.296875 -19.613281 3.730469 -19.304688 3.730469 -17.59375 L 3.699219 -17.46875 L 3.386719 -3.203125 C 3.386719 -1.367188 3.078125 -1.089844 0.777344 -1.027344 L 0.777344 0.09375 C 2.394531 0.03125 3.203125 0 4.164062 0 C 5.160156 0 5.875 0.03125 7.242188 0.09375 L 7.242188 -1.027344 C 5.003906 -1.089844 4.539062 -1.460938 4.601562 -2.953125 L 4.601562 -3.203125 Z M 4.910156 -18.339844 "/></g></g></g><g fill="rgb(100%, 100%, 100%)" fill-opacity="1"><g transform="translate(36.870512, 28.273026)"><g><path d="M 12.683594 -4.632812 C 12.277344 -2.207031 10.847656 -0.839844 8.796875 -0.839844 C 7.054688 -0.839844 5.96875 -1.648438 5.441406 -3.355469 C 5.160156 -4.289062 5.035156 -5.378906 5.035156 -7.335938 L 13.894531 -7.335938 C 13.832031 -9.046875 13.617188 -10.351562 13.242188 -11.378906 C 12.339844 -13.738281 10.289062 -15.109375 7.679688 -15.109375 C 3.667969 -15.109375 0.996094 -12 0.996094 -7.335938 C 0.996094 -2.671875 3.730469 0.402344 7.894531 0.402344 C 11.191406 0.402344 13.335938 -1.398438 13.894531 -4.632812 Z M 5.035156 -8.457031 C 5.160156 -12.464844 5.96875 -14.269531 7.617188 -14.269531 C 9.140625 -14.269531 9.824219 -12.589844 9.917969 -8.457031 Z M 5.035156 -8.457031 "/></g></g></g><g fill="rgb(100%, 100%, 100%)" fill-opacity="1"><g transform="translate(51.791589, 28.273026)"><g><path d="M 0.746094 -13.523438 C 2.953125 -13.492188 3.015625 -13.460938 3.015625 -11.285156 L 3.015625 -2.671875 C 3.015625 -0.996094 2.859375 -0.871094 0.777344 -0.777344 L 0.777344 0.09375 C 2.703125 -0.0625 3.699219 -0.09375 4.972656 -0.09375 C 6.25 -0.09375 7.242188 -0.03125 9.171875 0.09375 L 9.171875 -0.777344 C 7.085938 -0.871094 6.933594 -0.996094 6.933594 -2.671875 L 6.933594 -9.855469 C 6.933594 -10.910156 7.023438 -11.5625 7.242188 -12.09375 C 7.648438 -12.992188 8.425781 -13.585938 9.261719 -13.585938 C 9.761719 -13.585938 10.070312 -13.304688 10.070312 -12.839844 C 10.070312 -12.652344 10.039062 -12.402344 9.976562 -12.09375 C 9.949219 -11.90625 9.917969 -11.6875 9.917969 -11.625 C 9.917969 -10.941406 10.507812 -10.507812 11.410156 -10.507812 C 12.433594 -10.507812 13.023438 -11.097656 13.023438 -12.15625 C 13.023438 -13.894531 11.78125 -15.109375 9.976562 -15.109375 C 8.457031 -15.109375 7.304688 -14.300781 6.21875 -12.433594 C 6.15625 -13.367188 6.03125 -14.175781 5.75 -15.078125 C 4.289062 -14.671875 2.640625 -14.421875 0.746094 -14.332031 Z M 0.746094 -13.523438 "/></g></g></g><g fill="rgb(100%, 100%, 100%)" fill-opacity="1"><g transform="translate(65.158385, 28.273026)"><g><path d="M 13.210938 -15.355469 L 12.589844 -15.355469 L 11.625 -13.707031 C 10.570312 -14.734375 9.542969 -15.136719 8.019531 -15.136719 C 4.042969 -15.136719 1.210938 -11.875 1.210938 -7.242188 C 1.210938 -2.703125 3.917969 0.402344 7.832031 0.402344 C 11.003906 0.402344 12.929688 -1.367188 13.429688 -4.726562 L 12.125 -4.726562 C 11.78125 -2.300781 10.476562 -0.839844 8.578125 -0.839844 C 6.371094 -0.839844 5.253906 -2.984375 5.253906 -7.304688 C 5.253906 -9.140625 5.503906 -10.785156 5.9375 -12.0625 C 6.433594 -13.398438 7.367188 -14.113281 8.671875 -14.113281 C 9.917969 -14.113281 11.035156 -13.335938 11.59375 -12.0625 C 11.9375 -11.316406 12.09375 -10.753906 12.277344 -9.542969 L 13.210938 -9.542969 Z M 13.210938 -15.355469 "/></g></g></g><g fill="rgb(100%, 100%, 100%)" fill-opacity="1"><g transform="translate(79.613176, 28.273026)"><g><path d="M 12.683594 -4.632812 C 12.277344 -2.207031 10.847656 -0.839844 8.796875 -0.839844 C 7.054688 -0.839844 5.96875 -1.648438 5.441406 -3.355469 C 5.160156 -4.289062 5.035156 -5.378906 5.035156 -7.335938 L 13.894531 -7.335938 C 13.832031 -9.046875 13.617188 -10.351562 13.242188 -11.378906 C 12.339844 -13.738281 10.289062 -15.109375 7.679688 -15.109375 C 3.667969 -15.109375 0.996094 -12 0.996094 -7.335938 C 0.996094 -2.671875 3.730469 0.402344 7.894531 0.402344 C 11.191406 0.402344 13.335938 -1.398438 13.894531 -4.632812 Z M 5.035156 -8.457031 C 5.160156 -12.464844 5.96875 -14.269531 7.617188 -14.269531 C 9.140625 -14.269531 9.824219 -12.589844 9.917969 -8.457031 Z M 5.035156 -8.457031 "/></g></g></g><g fill="rgb(100%, 100%, 100%)" fill-opacity="1"><g transform="translate(94.534253, 28.273026)"><g><path d="M 16.910156 -1.398438 C 14.765625 -1.398438 14.515625 -1.617188 14.515625 -3.386719 L 14.515625 -21.292969 C 12.683594 -20.765625 10.070312 -20.300781 8.394531 -20.207031 L 8.394531 -19.398438 C 10.476562 -19.398438 10.601562 -19.273438 10.601562 -17.191406 L 10.601562 -13.210938 C 9.542969 -14.269531 8.671875 -14.640625 7.242188 -14.640625 C 3.636719 -14.640625 0.996094 -11.410156 0.996094 -7.023438 C 0.996094 -2.582031 3.730469 0.683594 7.460938 0.683594 C 9.140625 0.683594 10.164062 0.09375 11.160156 -1.460938 C 11.253906 -0.777344 11.316406 -0.621094 11.53125 0.09375 L 11.6875 0.496094 C 13.957031 -0.1875 14.394531 -0.28125 16.910156 -0.558594 Z M 7.742188 -13.769531 C 9.730469 -13.769531 10.632812 -11.6875 10.632812 -7.023438 C 10.632812 -5.097656 10.414062 -3.296875 10.070312 -2.113281 C 9.730469 -0.902344 8.890625 -0.1875 7.894531 -0.1875 C 5.875 -0.1875 5.003906 -2.300781 5.003906 -7.117188 C 5.003906 -11.78125 5.8125 -13.769531 7.742188 -13.769531 Z M 7.742188 -13.769531 "/></g></g></g><g fill="rgb(100%, 100%, 100%)" fill-opacity="1"><g transform="translate(111.569148, 28.273026)"><g><path d="M 12.683594 -4.632812 C 12.277344 -2.207031 10.847656 -0.839844 8.796875 -0.839844 C 7.054688 -0.839844 5.96875 -1.648438 5.441406 -3.355469 C 5.160156 -4.289062 5.035156 -5.378906 5.035156 -7.335938 L 13.894531 -7.335938 C 13.832031 -9.046875 13.617188 -10.351562 13.242188 -11.378906 C 12.339844 -13.738281 10.289062 -15.109375 7.679688 -15.109375 C 3.667969 -15.109375 0.996094 -12 0.996094 -7.335938 C 0.996094 -2.671875 3.730469 0.402344 7.894531 0.402344 C 11.191406 0.402344 13.335938 -1.398438 13.894531 -4.632812 Z M 5.035156 -8.457031 C 5.160156 -12.464844 5.96875 -14.269531 7.617188 -14.269531 C 9.140625 -14.269531 9.824219 -12.589844 9.917969 -8.457031 Z M 5.035156 -8.457031 "/></g></g></g><g fill="rgb(100%, 100%, 100%)" fill-opacity="1"><g transform="translate(126.490226, 28.273026)"><g><path d="M 1.835938 0.527344 L 2.425781 0.527344 L 3.265625 -1.210938 C 4.570312 -0.0625 5.625 0.34375 7.242188 0.34375 C 10.320312 0.34375 12.496094 -1.585938 12.496094 -4.289062 C 12.496094 -6.433594 11.625 -7.304688 7.273438 -9.511719 C 5.472656 -10.445312 5.003906 -10.878906 5.003906 -11.75 C 5.003906 -12.902344 6.21875 -13.863281 7.679688 -13.863281 C 9.574219 -13.863281 10.539062 -12.777344 10.910156 -10.257812 L 11.8125 -10.257812 L 11.8125 -15.417969 L 11.222656 -15.417969 L 10.445312 -13.769531 C 9.355469 -14.671875 8.394531 -15.015625 6.964844 -15.015625 C 3.949219 -15.015625 1.804688 -13.273438 1.804688 -10.847656 C 1.804688 -9.917969 2.113281 -9.046875 2.640625 -8.394531 C 3.046875 -7.894531 4.257812 -7.085938 5.9375 -6.15625 C 8.765625 -4.601562 9.140625 -4.226562 9.140625 -3.140625 C 9.140625 -1.835938 7.925781 -0.777344 6.433594 -0.777344 C 4.445312 -0.777344 3.109375 -2.300781 2.734375 -5.066406 L 1.835938 -5.066406 Z M 1.835938 0.527344 "/></g></g></g><g fill="rgb(100%, 100%, 100%)" fill-opacity="1"><g transform="translate(140.509821, 28.273026)"><g><path d="M 0 -7.117188 L 8.269531 -7.117188 L 8.269531 -8.734375 L 0 -8.734375 Z M 0 -7.117188 "/></g></g></g><g fill="rgb(100%, 100%, 100%)" fill-opacity="1"><g transform="translate(148.77858, 28.273026)"><g><path d="M 0.808594 -20.734375 L 0.808594 -19.582031 C 3.109375 -19.554688 3.449219 -19.242188 3.449219 -17.40625 L 3.449219 -3.324219 C 3.449219 -1.492188 3.109375 -1.210938 0.808594 -1.148438 L 0.808594 0 L 9.324219 0 C 11.441406 0 12.992188 -0.25 14.300781 -0.746094 C 16.289062 -1.554688 17.625 -3.636719 17.625 -5.96875 C 17.625 -8.796875 15.855469 -10.785156 12.992188 -11.160156 C 15.449219 -11.9375 16.628906 -13.398438 16.628906 -15.636719 C 16.628906 -17.316406 15.824219 -18.867188 14.453125 -19.738281 C 13.335938 -20.453125 12.0625 -20.734375 9.949219 -20.734375 Z M 7.429688 -11.410156 L 7.429688 -19.554688 L 9.355469 -19.554688 C 11.625 -19.554688 12.527344 -18.402344 12.527344 -15.480469 C 12.527344 -12.527344 11.5625 -11.410156 9.078125 -11.410156 Z M 7.429688 -10.226562 L 9.636719 -10.226562 C 11.160156 -10.226562 11.96875 -9.976562 12.527344 -9.324219 C 13.179688 -8.609375 13.523438 -7.335938 13.523438 -5.78125 C 13.523438 -2.703125 12.371094 -1.242188 9.949219 -1.242188 L 8.828125 -1.242188 C 7.710938 -1.242188 7.429688 -1.492188 7.429688 -2.519531 Z M 7.429688 -10.226562 "/></g></g></g><g fill="rgb(100%, 100%, 100%)" fill-opacity="1"><g transform="translate(167.647519, 28.273026)"><g><path d="M 12.683594 -4.632812 C 12.277344 -2.207031 10.847656 -0.839844 8.796875 -0.839844 C 7.054688 -0.839844 5.96875 -1.648438 5.441406 -3.355469 C 5.160156 -4.289062 5.035156 -5.378906 5.035156 -7.335938 L 13.894531 -7.335938 C 13.832031 -9.046875 13.617188 -10.351562 13.242188 -11.378906 C 12.339844 -13.738281 10.289062 -15.109375 7.679688 -15.109375 C 3.667969 -15.109375 0.996094 -12 0.996094 -7.335938 C 0.996094 -2.671875 3.730469 0.402344 7.894531 0.402344 C 11.191406 0.402344 13.335938 -1.398438 13.894531 -4.632812 Z M 5.035156 -8.457031 C 5.160156 -12.464844 5.96875 -14.269531 7.617188 -14.269531 C 9.140625 -14.269531 9.824219 -12.589844 9.917969 -8.457031 Z M 5.035156 -8.457031 "/></g></g></g><g fill="rgb(100%, 100%, 100%)" fill-opacity="1"><g transform="translate(182.568596, 28.273026)"><g><path d="M 0.746094 -13.335938 C 2.953125 -13.335938 3.015625 -13.273438 3.015625 -11.097656 L 3.015625 -2.671875 C 3.015625 -0.996094 2.859375 -0.871094 0.777344 -0.777344 L 0.777344 0.09375 C 2.394531 -0.03125 3.234375 -0.0625 4.601562 -0.0625 C 6.03125 -0.0625 6.933594 -0.03125 8.425781 0.09375 L 8.425781 -0.746094 C 7.117188 -0.777344 6.933594 -0.996094 6.933594 -2.488281 L 6.933594 -10.257812 C 6.933594 -11.253906 7.023438 -11.78125 7.335938 -12.246094 C 7.769531 -12.960938 8.546875 -13.367188 9.480469 -13.367188 C 10.320312 -13.367188 10.972656 -13.023438 11.378906 -12.433594 C 11.6875 -12 11.78125 -11.410156 11.78125 -10.320312 L 11.78125 -2.488281 C 11.78125 -0.996094 11.59375 -0.777344 10.289062 -0.746094 L 10.289062 0.09375 C 11.75 -0.03125 12.683594 -0.0625 14.082031 -0.0625 C 15.480469 -0.0625 16.320312 -0.03125 17.9375 0.09375 L 17.9375 -0.777344 C 15.855469 -0.871094 15.699219 -0.996094 15.699219 -2.671875 L 15.699219 -9.824219 C 15.699219 -13.242188 14.082031 -15.015625 10.972656 -15.015625 C 8.921875 -15.015625 7.585938 -14.269531 6.402344 -12.433594 C 6.339844 -13.460938 6.15625 -14.238281 5.8125 -15.046875 C 4.507812 -14.671875 2.734375 -14.332031 0.746094 -14.144531 Z M 0.746094 -13.335938 "/></g></g></g><g fill="rgb(100%, 100%, 100%)" fill-opacity="1"><g transform="translate(201.06451, 28.273026)"><g><path d="M 0.839844 0 L 12.339844 0 L 13.242188 -5.128906 L 12.308594 -5.128906 C 12 -4.195312 11.65625 -3.449219 11.222656 -2.703125 C 10.445312 -1.367188 9.761719 -0.996094 8.050781 -0.996094 L 5.78125 -0.996094 L 13.429688 -14.671875 L 2.269531 -14.671875 L 1.460938 -10.039062 L 2.394531 -10.039062 C 3.605469 -13.085938 4.257812 -13.675781 6.433594 -13.675781 L 8.425781 -13.675781 Z M 0.839844 0 "/></g></g></g></svg>