<svg xmlns="http://www.w3.org/2000/svg" xmlns:xlink="http://www.w3.org/1999/xlink" width="200" zoomAndPan="magnify" viewBox="0 0 150 37.5" height="50" preserveAspectRatio="xMidYMid meet" version="1.0"><defs><g/></defs><g fill="#d0d0d0" fill-opacity="1"><g transform="translate(0.729079, 32.005954)"><g><path d="M 6.289062 0 L 11.453125 0 L 15.285156 -13.210938 L 15.566406 -13.210938 L 19.429688 0 L 24.59375 0 L 30.183594 -17.847656 L 26.175781 -17.847656 L 21.960938 -3.96875 L 21.714844 -3.96875 L 17.355469 -17.847656 L 13.457031 -17.847656 L 9.3125 -4.074219 L 9.03125 -4.074219 L 4.847656 -17.847656 L 0.703125 -17.847656 Z M 6.289062 0 "/></g></g></g><g fill="#d0d0d0" fill-opacity="1"><g transform="translate(31.637299, 32.005954)"><g><path d="M 11.101562 0.5625 C 15.390625 0.5625 19.113281 -1.757812 20.097656 -5.199219 L 16.585938 -5.761719 C 15.847656 -3.757812 13.703125 -2.320312 11.277344 -2.320312 C 7.976562 -2.320312 5.621094 -4.53125 5.339844 -7.835938 L 20.660156 -7.835938 L 20.695312 -8.925781 C 20.695312 -14.582031 16.832031 -18.410156 11.136719 -18.410156 C 5.339844 -18.410156 1.265625 -14.617188 1.265625 -8.960938 C 1.265625 -3.269531 5.304688 0.5625 11.101562 0.5625 Z M 5.304688 -10.15625 C 5.621094 -13.351562 7.871094 -15.566406 11.066406 -15.566406 C 14.160156 -15.566406 16.445312 -13.246094 16.65625 -10.15625 Z M 5.304688 -10.15625 "/></g></g></g><g fill="#d0d0d0" fill-opacity="1"><g transform="translate(53.554036, 32.005954)"><g><path d="M 13.070312 0.5625 C 18.09375 0.5625 21.609375 -3.234375 21.609375 -8.925781 C 21.609375 -14.582031 18.09375 -18.410156 13.070312 -18.410156 C 10.085938 -18.410156 7.800781 -16.972656 6.570312 -14.582031 L 6.289062 -14.582031 L 6.289062 -25.929688 L 2.320312 -25.929688 L 2.320312 0 L 6.289062 0 L 6.289062 -3.269531 L 6.570312 -3.269531 C 7.800781 -0.914062 10.050781 0.5625 13.070312 0.5625 Z M 11.875 -2.847656 C 8.539062 -2.847656 6.148438 -5.410156 6.148438 -8.925781 C 6.148438 -12.4375 8.539062 -15.003906 11.875 -15.003906 C 15.179688 -15.003906 17.601562 -12.4375 17.601562 -8.925781 C 17.601562 -5.410156 15.179688 -2.847656 11.875 -2.847656 Z M 11.875 -2.847656 "/></g></g></g><g fill="#d0d0d0" fill-opacity="1"><g transform="translate(76.383976, 32.005954)"><g><path d="M 10.925781 0.5625 C 16.726562 0.5625 20.660156 -3.199219 20.660156 -8.925781 C 20.660156 -14.652344 16.726562 -18.410156 10.925781 -18.410156 C 5.128906 -18.410156 1.230469 -14.6875 1.230469 -8.925781 C 1.230469 -3.199219 5.164062 0.5625 10.925781 0.5625 Z M 10.925781 -2.847656 C 7.589844 -2.847656 5.199219 -5.375 5.199219 -8.925781 C 5.199219 -12.472656 7.589844 -15.003906 10.925781 -15.003906 C 14.300781 -15.003906 16.691406 -12.472656 16.691406 -8.925781 C 16.691406 -5.375 14.300781 -2.847656 10.925781 -2.847656 Z M 10.925781 -2.847656 "/></g></g></g><g fill="#d0d0d0" fill-opacity="1"><g transform="translate(98.230478, 32.005954)"><g><path d="M 10.925781 0.5625 C 16.726562 0.5625 20.660156 -3.199219 20.660156 -8.925781 C 20.660156 -14.652344 16.726562 -18.410156 10.925781 -18.410156 C 5.128906 -18.410156 1.230469 -14.6875 1.230469 -8.925781 C 1.230469 -3.199219 5.164062 0.5625 10.925781 0.5625 Z M 10.925781 -2.847656 C 7.589844 -2.847656 5.199219 -5.375 5.199219 -8.925781 C 5.199219 -12.472656 7.589844 -15.003906 10.925781 -15.003906 C 14.300781 -15.003906 16.691406 -12.472656 16.691406 -8.925781 C 16.691406 -5.375 14.300781 -2.847656 10.925781 -2.847656 Z M 10.925781 -2.847656 "/></g></g></g><g fill="#d0d0d0" fill-opacity="1"><g transform="translate(120.07698, 32.005954)"><g><path d="M 10.925781 0.5625 C 16.726562 0.5625 20.660156 -3.199219 20.660156 -8.925781 C 20.660156 -14.652344 16.726562 -18.410156 10.925781 -18.410156 C 5.128906 -18.410156 1.230469 -14.6875 1.230469 -8.925781 C 1.230469 -3.199219 5.164062 0.5625 10.925781 0.5625 Z M 10.925781 -2.847656 C 7.589844 -2.847656 5.199219 -5.375 5.199219 -8.925781 C 5.199219 -12.472656 7.589844 -15.003906 10.925781 -15.003906 C 14.300781 -15.003906 16.691406 -12.472656 16.691406 -8.925781 C 16.691406 -5.375 14.300781 -2.847656 10.925781 -2.847656 Z M 10.925781 -2.847656 "/></g></g></g><g fill="#d0d0d0" fill-opacity="1"><g transform="translate(141.923482, 32.005954)"><g><path d="M 3.6875 0.386719 C 5.09375 0.386719 6.113281 -0.632812 6.113281 -2.039062 C 6.113281 -3.410156 5.09375 -4.390625 3.6875 -4.390625 C 2.25 -4.390625 1.230469 -3.375 1.230469 -2.039062 C 1.230469 -0.632812 2.25 0.386719 3.6875 0.386719 Z M 3.6875 0.386719 "/></g></g></g></svg>