<svg xmlns="http://www.w3.org/2000/svg" xmlns:xlink="http://www.w3.org/1999/xlink" width="300" zoomAndPan="magnify" viewBox="0 0 224.87999 37.5" height="50" preserveAspectRatio="xMidYMid meet" version="1.0"><defs><g/></defs><g fill="rgb(100%, 100%, 100%)" fill-opacity="1"><g transform="translate(10.590951, 29.753289)"><g><path d="M 9.605469 0 L 10.601562 0 C 12.808594 -5.472656 17.625 -17.59375 20.175781 -23.71875 L 19.148438 -23.71875 C 16.972656 -18.277344 11.9375 -5.625 10.164062 -1.242188 L 10.070312 -1.242188 C 8.488281 -5.410156 3.140625 -18.339844 1.089844 -23.71875 L 0.0625 -23.71875 C 2.765625 -17.128906 7.367188 -5.5625 9.605469 0 Z M 9.605469 0 "/></g></g></g><g fill="rgb(100%, 100%, 100%)" fill-opacity="1"><g transform="translate(30.827658, 29.753289)"><g><path d="M 3.109375 0 L 4.164062 0 C 4.101562 -3.917969 4.070312 -7.863281 4.070312 -11.84375 C 4.070312 -15.792969 4.101562 -19.769531 4.164062 -23.71875 L 3.109375 -23.71875 C 3.140625 -19.738281 3.171875 -15.824219 3.171875 -11.84375 C 3.171875 -7.863281 3.140625 -3.949219 3.109375 0 Z M 3.109375 0 "/></g></g></g><g fill="rgb(100%, 100%, 100%)" fill-opacity="1"><g transform="translate(38.101684, 29.753289)"><g><path d="M 10.476562 0.371094 C 15.914062 0.371094 19.023438 -2.019531 19.179688 -6.09375 C 19.304688 -9.699219 17.160156 -11.441406 10.847656 -12.621094 C 5.441406 -13.648438 3.171875 -14.578125 3.171875 -18.0625 C 3.171875 -19.769531 4.164062 -21.136719 5.472656 -21.976562 C 6.683594 -22.785156 8.425781 -23.066406 10.445312 -23.066406 C 15.261719 -23.066406 17.035156 -20.921875 18.0625 -17.53125 L 18.867188 -17.78125 C 17.75 -21.480469 15.667969 -23.96875 10.570312 -23.96875 C 5.78125 -23.96875 2.269531 -22.039062 2.269531 -17.96875 C 2.269531 -13.863281 5.8125 -12.496094 10.289062 -11.75 C 16.414062 -10.722656 18.402344 -9.171875 18.308594 -6.09375 C 18.246094 -4.476562 17.625 -3.140625 16.507812 -2.144531 C 15.230469 -1.027344 13.210938 -0.527344 10.507812 -0.527344 C 5.191406 -0.527344 3.140625 -2.859375 2.363281 -6.589844 L 1.492188 -6.589844 C 2.082031 -2.332031 4.507812 0.371094 10.476562 0.371094 Z M 10.476562 0.371094 "/></g></g></g><g fill="rgb(100%, 100%, 100%)" fill-opacity="1"><g transform="translate(58.773586, 29.753289)"><g><path d="M 3.109375 0 L 4.164062 0 C 4.101562 -3.917969 4.070312 -7.863281 4.070312 -11.84375 C 4.070312 -15.792969 4.101562 -19.769531 4.164062 -23.71875 L 3.109375 -23.71875 C 3.140625 -19.738281 3.171875 -15.824219 3.171875 -11.84375 C 3.171875 -7.863281 3.140625 -3.949219 3.109375 0 Z M 3.109375 0 "/></g></g></g><g fill="rgb(100%, 100%, 100%)" fill-opacity="1"><g transform="translate(66.047613, 29.753289)"><g><path d="M 11.96875 0.371094 C 18.433594 0.371094 22.414062 -4.164062 22.414062 -11.8125 C 22.414062 -19.460938 18.402344 -23.96875 11.96875 -23.96875 C 5.535156 -23.96875 1.492188 -19.460938 1.492188 -11.8125 C 1.492188 -4.164062 5.503906 0.371094 11.96875 0.371094 Z M 11.96875 -0.527344 C 6.25 -0.527344 2.457031 -4.476562 2.457031 -11.8125 C 2.457031 -16.132812 3.761719 -19.304688 6 -21.199219 C 7.585938 -22.476562 9.605469 -23.066406 11.96875 -23.066406 C 17.71875 -23.066406 21.449219 -19.148438 21.449219 -11.8125 C 21.449219 -7.148438 19.925781 -3.824219 17.347656 -1.988281 C 15.882812 -0.964844 14.050781 -0.527344 11.96875 -0.527344 Z M 11.96875 -0.527344 "/></g></g></g><g fill="rgb(100%, 100%, 100%)" fill-opacity="1"><g transform="translate(89.952418, 29.753289)"><g><path d="M 3.140625 0 L 4.132812 0 C 4.101562 -4.011719 4.070312 -9.730469 4.070312 -17.625 C 4.070312 -19.304688 3.917969 -20.984375 3.824219 -22.414062 L 4.042969 -22.414062 C 4.445312 -21.761719 4.941406 -21.015625 7.085938 -17.90625 L 19.460938 0 L 20.300781 0 C 20.300781 -4.195312 20.269531 -8.394531 20.269531 -12.589844 C 20.269531 -16.816406 20.300781 -20.546875 20.328125 -23.71875 L 19.304688 -23.71875 C 19.367188 -20.050781 19.367188 -13.210938 19.367188 -7.335938 C 19.367188 -5.222656 19.492188 -3.386719 19.644531 -1.460938 L 19.492188 -1.460938 C 19.179688 -1.957031 18.214844 -3.511719 17.066406 -5.160156 L 4.164062 -23.71875 L 3.109375 -23.71875 C 3.109375 -21.945312 3.171875 -19.707031 3.171875 -17.59375 C 3.171875 -6.621094 3.140625 -3.046875 3.140625 0 Z M 3.140625 0 "/></g></g></g><g fill="rgb(100%, 100%, 100%)" fill-opacity="1"><g transform="translate(113.390938, 29.753289)"><g/></g></g><g fill="rgb(100%, 100%, 100%)" fill-opacity="1"><g transform="translate(120.847422, 29.753289)"><g><path d="M 21.730469 0 C 19.085938 -6.683594 14.703125 -17.9375 12.558594 -23.71875 L 9.542969 -23.71875 C 7.523438 -18.089844 2.890625 -6.277344 0.464844 0 L 2.765625 0 L 5.378906 -6.996094 C 7.023438 -6.996094 8.890625 -6.996094 11.035156 -6.996094 L 16.878906 -6.996094 C 17.9375 -4.289062 18.867188 -1.804688 19.492188 0 Z M 5.90625 -8.457031 C 7.492188 -12.683594 9.171875 -17.222656 11.003906 -22.257812 L 11.097656 -22.257812 C 12.183594 -18.808594 14.363281 -13.398438 16.289062 -8.457031 Z M 5.90625 -8.457031 "/></g></g></g><g fill="rgb(100%, 100%, 100%)" fill-opacity="1"><g transform="translate(143.042514, 29.753289)"><g><path d="M 9.292969 0 L 12.308594 0 C 14.421875 -5.8125 18.808594 -17.4375 21.199219 -23.71875 L 18.992188 -23.71875 C 17.035156 -18.214844 12.558594 -6.464844 10.878906 -1.804688 L 10.753906 -1.804688 C 9.261719 -6.25 4.507812 -18.277344 2.609375 -23.71875 L 0.464844 -23.71875 C 3.015625 -17.066406 7.179688 -5.875 9.292969 0 Z M 9.292969 0 "/></g></g></g><g fill="rgb(100%, 100%, 100%)" fill-opacity="1"><g transform="translate(164.70915, 29.753289)"><g><path d="M 8.363281 0 L 10.539062 0 C 10.476562 -3.855469 10.445312 -7.742188 10.445312 -11.6875 C 10.445312 -14.859375 10.476562 -18.867188 10.539062 -22.101562 C 12.960938 -22.101562 15.761719 -22.070312 18.433594 -22.039062 L 18.433594 -23.71875 L 0.464844 -23.71875 L 0.464844 -22.039062 C 3.140625 -22.070312 6 -22.101562 8.363281 -22.101562 C 8.394531 -18.746094 8.425781 -15.230469 8.425781 -11.78125 C 8.425781 -7.894531 8.394531 -3.917969 8.363281 0 Z M 8.363281 0 "/></g></g></g><g fill="rgb(100%, 100%, 100%)" fill-opacity="1"><g transform="translate(183.578089, 29.753289)"><g><path d="M 3.296875 0 L 5.410156 0 C 5.410156 -3.417969 5.441406 -6.464844 5.441406 -9.976562 L 11.75 -9.976562 C 15.292969 -9.976562 16.816406 -8.640625 18.089844 -5.347656 C 18.496094 -4.070312 19.429688 -1.304688 19.832031 0 L 22.039062 0 C 21.605469 -1.304688 20.578125 -4.226562 20.175781 -5.378906 C 18.898438 -9.015625 17.375 -10.289062 14.484375 -10.601562 L 14.484375 -10.910156 C 18.277344 -11.003906 20.828125 -13.054688 20.828125 -17.285156 C 20.828125 -22.289062 17.84375 -23.71875 11.90625 -23.71875 L 3.296875 -23.71875 C 3.324219 -20.828125 3.480469 -14.890625 3.480469 -11.78125 C 3.480469 -8.640625 3.324219 -3.046875 3.296875 0 Z M 5.441406 -11.59375 L 5.441406 -22.132812 L 11.78125 -22.132812 C 16.570312 -22.132812 18.746094 -21.042969 18.746094 -16.878906 C 18.746094 -13.335938 16.941406 -11.59375 11.65625 -11.59375 Z M 5.441406 -11.59375 "/></g></g></g></svg>